<mxfile host="app.diagrams.net" modified="2024-03-25T09:23:17.124Z" agent="Mozilla/5.0 (Windows NT 10.0; Win64; x64) AppleWebKit/537.36 (KHTML, like Gecko) Chrome/122.0.0.0 Safari/537.36" etag="8RWrAHAxQuxnjB59Qs5f" version="24.0.7" type="github">
  <diagram id="cAw7CVeG8lyeVUywHT8g" name="Page-1">
    <mxGraphModel dx="1221" dy="1752" grid="1" gridSize="10" guides="1" tooltips="1" connect="1" arrows="1" fold="1" page="1" pageScale="1" pageWidth="850" pageHeight="1100" math="0" shadow="0">
      <root>
        <mxCell id="0" />
        <mxCell id="1" parent="0" />
        <mxCell id="n-dGnEdIDqLeS3YyGo9B-4" value="" style="edgeStyle=orthogonalEdgeStyle;rounded=0;orthogonalLoop=1;jettySize=auto;html=1;entryX=0;entryY=0.5;entryDx=0;entryDy=0;curved=1;" edge="1" parent="1" source="n-dGnEdIDqLeS3YyGo9B-1" target="n-dGnEdIDqLeS3YyGo9B-2">
          <mxGeometry relative="1" as="geometry" />
        </mxCell>
        <mxCell id="n-dGnEdIDqLeS3YyGo9B-1" value="PR header" style="ellipse;whiteSpace=wrap;html=1;" vertex="1" parent="1">
          <mxGeometry x="240" y="160" width="110" height="50" as="geometry" />
        </mxCell>
        <mxCell id="n-dGnEdIDqLeS3YyGo9B-27" style="edgeStyle=orthogonalEdgeStyle;rounded=0;orthogonalLoop=1;jettySize=auto;html=1;exitX=0.5;exitY=1;exitDx=0;exitDy=0;entryX=0.5;entryY=0;entryDx=0;entryDy=0;curved=1;" edge="1" parent="1" source="n-dGnEdIDqLeS3YyGo9B-2" target="n-dGnEdIDqLeS3YyGo9B-25">
          <mxGeometry relative="1" as="geometry" />
        </mxCell>
        <mxCell id="n-dGnEdIDqLeS3YyGo9B-2" value="PR line" style="ellipse;whiteSpace=wrap;html=1;" vertex="1" parent="1">
          <mxGeometry x="425" y="160" width="110" height="50" as="geometry" />
        </mxCell>
        <mxCell id="n-dGnEdIDqLeS3YyGo9B-11" style="edgeStyle=orthogonalEdgeStyle;rounded=0;orthogonalLoop=1;jettySize=auto;html=1;curved=1;" edge="1" parent="1" source="n-dGnEdIDqLeS3YyGo9B-10" target="n-dGnEdIDqLeS3YyGo9B-2">
          <mxGeometry relative="1" as="geometry" />
        </mxCell>
        <mxCell id="n-dGnEdIDqLeS3YyGo9B-13" style="edgeStyle=orthogonalEdgeStyle;rounded=0;orthogonalLoop=1;jettySize=auto;html=1;entryX=0.5;entryY=0;entryDx=0;entryDy=0;curved=1;" edge="1" parent="1" source="n-dGnEdIDqLeS3YyGo9B-12" target="n-dGnEdIDqLeS3YyGo9B-1">
          <mxGeometry relative="1" as="geometry" />
        </mxCell>
        <mxCell id="n-dGnEdIDqLeS3YyGo9B-12" value="Preparer - &lt;i&gt;MP&lt;/i&gt;" style="ellipse;whiteSpace=wrap;html=1;fillColor=#6d8764;strokeColor=#3A5431;fontColor=#ffffff;" vertex="1" parent="1">
          <mxGeometry x="130" y="60" width="110" height="50" as="geometry" />
        </mxCell>
        <mxCell id="n-dGnEdIDqLeS3YyGo9B-15" style="edgeStyle=orthogonalEdgeStyle;rounded=0;orthogonalLoop=1;jettySize=auto;html=1;entryX=0.5;entryY=1;entryDx=0;entryDy=0;curved=1;" edge="1" parent="1" source="n-dGnEdIDqLeS3YyGo9B-14" target="n-dGnEdIDqLeS3YyGo9B-1">
          <mxGeometry relative="1" as="geometry" />
        </mxCell>
        <mxCell id="n-dGnEdIDqLeS3YyGo9B-14" value="Requesting Site" style="ellipse;whiteSpace=wrap;html=1;" vertex="1" parent="1">
          <mxGeometry x="200" y="250" width="110" height="50" as="geometry" />
        </mxCell>
        <mxCell id="n-dGnEdIDqLeS3YyGo9B-19" style="edgeStyle=orthogonalEdgeStyle;rounded=0;orthogonalLoop=1;jettySize=auto;html=1;entryX=1;entryY=1;entryDx=0;entryDy=0;elbow=vertical;curved=1;" edge="1" parent="1" source="n-dGnEdIDqLeS3YyGo9B-16" target="n-dGnEdIDqLeS3YyGo9B-2">
          <mxGeometry relative="1" as="geometry" />
        </mxCell>
        <mxCell id="n-dGnEdIDqLeS3YyGo9B-16" value="Item &lt;font style=&quot;font-size: 8px;&quot;&gt;(Product/Service)&lt;/font&gt;" style="ellipse;whiteSpace=wrap;html=1;" vertex="1" parent="1">
          <mxGeometry x="580" y="220" width="110" height="50" as="geometry" />
        </mxCell>
        <mxCell id="n-dGnEdIDqLeS3YyGo9B-22" style="edgeStyle=orthogonalEdgeStyle;rounded=0;orthogonalLoop=1;jettySize=auto;html=1;exitX=0;exitY=0.5;exitDx=0;exitDy=0;entryX=1;entryY=0;entryDx=0;entryDy=0;curved=1;" edge="1" parent="1" source="n-dGnEdIDqLeS3YyGo9B-21" target="n-dGnEdIDqLeS3YyGo9B-2">
          <mxGeometry relative="1" as="geometry" />
        </mxCell>
        <mxCell id="n-dGnEdIDqLeS3YyGo9B-26" style="edgeStyle=orthogonalEdgeStyle;rounded=0;orthogonalLoop=1;jettySize=auto;html=1;entryX=0;entryY=0.5;entryDx=0;entryDy=0;curved=1;" edge="1" parent="1" source="n-dGnEdIDqLeS3YyGo9B-24" target="n-dGnEdIDqLeS3YyGo9B-25">
          <mxGeometry relative="1" as="geometry" />
        </mxCell>
        <mxCell id="n-dGnEdIDqLeS3YyGo9B-24" value="RFX header" style="ellipse;whiteSpace=wrap;html=1;" vertex="1" parent="1">
          <mxGeometry x="330" y="400" width="110" height="50" as="geometry" />
        </mxCell>
        <mxCell id="n-dGnEdIDqLeS3YyGo9B-25" value="RFX line" style="ellipse;whiteSpace=wrap;html=1;" vertex="1" parent="1">
          <mxGeometry x="500" y="360" width="110" height="50" as="geometry" />
        </mxCell>
        <mxCell id="n-dGnEdIDqLeS3YyGo9B-29" style="edgeStyle=orthogonalEdgeStyle;rounded=0;orthogonalLoop=1;jettySize=auto;html=1;entryX=1;entryY=0;entryDx=0;entryDy=0;curved=1;" edge="1" parent="1" source="n-dGnEdIDqLeS3YyGo9B-28" target="n-dGnEdIDqLeS3YyGo9B-25">
          <mxGeometry relative="1" as="geometry" />
        </mxCell>
        <mxCell id="n-dGnEdIDqLeS3YyGo9B-28" value="Supplier" style="ellipse;whiteSpace=wrap;html=1;" vertex="1" parent="1">
          <mxGeometry x="650" y="300" width="110" height="50" as="geometry" />
        </mxCell>
        <mxCell id="n-dGnEdIDqLeS3YyGo9B-31" style="edgeStyle=orthogonalEdgeStyle;rounded=0;orthogonalLoop=1;jettySize=auto;html=1;entryX=1;entryY=0.5;entryDx=0;entryDy=0;curved=1;startArrow=classic;startFill=1;" edge="1" parent="1" source="n-dGnEdIDqLeS3YyGo9B-30" target="n-dGnEdIDqLeS3YyGo9B-28">
          <mxGeometry relative="1" as="geometry" />
        </mxCell>
        <mxCell id="n-dGnEdIDqLeS3YyGo9B-30" value="Vendor - &lt;i&gt;Fin4u&lt;/i&gt;" style="ellipse;whiteSpace=wrap;html=1;fillColor=#dae8fc;strokeColor=#6c8ebf;" vertex="1" parent="1">
          <mxGeometry x="800" y="260" width="110" height="50" as="geometry" />
        </mxCell>
        <mxCell id="n-dGnEdIDqLeS3YyGo9B-33" style="edgeStyle=orthogonalEdgeStyle;rounded=0;orthogonalLoop=1;jettySize=auto;html=1;curved=1;" edge="1" parent="1" source="n-dGnEdIDqLeS3YyGo9B-32" target="n-dGnEdIDqLeS3YyGo9B-25">
          <mxGeometry relative="1" as="geometry" />
        </mxCell>
        <mxCell id="n-dGnEdIDqLeS3YyGo9B-32" value="Reply" style="ellipse;whiteSpace=wrap;html=1;" vertex="1" parent="1">
          <mxGeometry x="690" y="400" width="110" height="50" as="geometry" />
        </mxCell>
        <mxCell id="n-dGnEdIDqLeS3YyGo9B-39" style="edgeStyle=orthogonalEdgeStyle;rounded=0;orthogonalLoop=1;jettySize=auto;html=1;entryX=0.5;entryY=1;entryDx=0;entryDy=0;curved=1;" edge="1" parent="1" source="n-dGnEdIDqLeS3YyGo9B-34" target="n-dGnEdIDqLeS3YyGo9B-32">
          <mxGeometry relative="1" as="geometry" />
        </mxCell>
        <mxCell id="n-dGnEdIDqLeS3YyGo9B-34" value="Delivery Term" style="ellipse;whiteSpace=wrap;html=1;" vertex="1" parent="1">
          <mxGeometry x="770" y="510" width="110" height="50" as="geometry" />
        </mxCell>
        <mxCell id="n-dGnEdIDqLeS3YyGo9B-36" style="edgeStyle=orthogonalEdgeStyle;rounded=0;orthogonalLoop=1;jettySize=auto;html=1;entryX=0.5;entryY=0;entryDx=0;entryDy=0;curved=1;" edge="1" parent="1" source="n-dGnEdIDqLeS3YyGo9B-35" target="n-dGnEdIDqLeS3YyGo9B-32">
          <mxGeometry relative="1" as="geometry" />
        </mxCell>
        <mxCell id="n-dGnEdIDqLeS3YyGo9B-35" value="Payment Term - &lt;i&gt;Fin4u&lt;/i&gt;" style="ellipse;whiteSpace=wrap;html=1;fillColor=#dae8fc;strokeColor=#6c8ebf;" vertex="1" parent="1">
          <mxGeometry x="820" y="350" width="110" height="50" as="geometry" />
        </mxCell>
        <mxCell id="n-dGnEdIDqLeS3YyGo9B-38" style="edgeStyle=orthogonalEdgeStyle;rounded=0;orthogonalLoop=1;jettySize=auto;html=1;entryX=1;entryY=1;entryDx=0;entryDy=0;curved=1;" edge="1" parent="1" source="n-dGnEdIDqLeS3YyGo9B-37" target="n-dGnEdIDqLeS3YyGo9B-32">
          <mxGeometry relative="1" as="geometry" />
        </mxCell>
        <mxCell id="n-dGnEdIDqLeS3YyGo9B-37" value="Currency - &lt;i&gt;Fin4u&lt;/i&gt;" style="ellipse;whiteSpace=wrap;html=1;fillColor=#dae8fc;strokeColor=#6c8ebf;" vertex="1" parent="1">
          <mxGeometry x="840" y="450" width="110" height="50" as="geometry" />
        </mxCell>
        <mxCell id="n-dGnEdIDqLeS3YyGo9B-43" style="edgeStyle=orthogonalEdgeStyle;rounded=0;orthogonalLoop=1;jettySize=auto;html=1;entryX=0.5;entryY=1;entryDx=0;entryDy=0;curved=1;" edge="1" parent="1" source="n-dGnEdIDqLeS3YyGo9B-40" target="n-dGnEdIDqLeS3YyGo9B-25">
          <mxGeometry relative="1" as="geometry" />
        </mxCell>
        <mxCell id="n-dGnEdIDqLeS3YyGo9B-46" style="edgeStyle=orthogonalEdgeStyle;rounded=0;orthogonalLoop=1;jettySize=auto;html=1;entryX=0.5;entryY=0;entryDx=0;entryDy=0;curved=1;" edge="1" parent="1" source="n-dGnEdIDqLeS3YyGo9B-40" target="n-dGnEdIDqLeS3YyGo9B-45">
          <mxGeometry relative="1" as="geometry" />
        </mxCell>
        <mxCell id="n-dGnEdIDqLeS3YyGo9B-40" value="Award Choice" style="ellipse;whiteSpace=wrap;html=1;" vertex="1" parent="1">
          <mxGeometry x="570" y="480" width="110" height="50" as="geometry" />
        </mxCell>
        <mxCell id="n-dGnEdIDqLeS3YyGo9B-47" style="edgeStyle=orthogonalEdgeStyle;rounded=0;orthogonalLoop=1;jettySize=auto;html=1;curved=1;" edge="1" parent="1" source="n-dGnEdIDqLeS3YyGo9B-44" target="n-dGnEdIDqLeS3YyGo9B-45">
          <mxGeometry relative="1" as="geometry" />
        </mxCell>
        <mxCell id="n-dGnEdIDqLeS3YyGo9B-44" value="PO header" style="ellipse;whiteSpace=wrap;html=1;" vertex="1" parent="1">
          <mxGeometry x="250" y="540" width="110" height="50" as="geometry" />
        </mxCell>
        <mxCell id="n-dGnEdIDqLeS3YyGo9B-45" value="PO line" style="ellipse;whiteSpace=wrap;html=1;" vertex="1" parent="1">
          <mxGeometry x="440" y="540" width="110" height="50" as="geometry" />
        </mxCell>
        <mxCell id="n-dGnEdIDqLeS3YyGo9B-50" style="edgeStyle=orthogonalEdgeStyle;rounded=0;orthogonalLoop=1;jettySize=auto;html=1;entryX=0;entryY=0;entryDx=0;entryDy=0;curved=1;" edge="1" parent="1" source="n-dGnEdIDqLeS3YyGo9B-48" target="n-dGnEdIDqLeS3YyGo9B-2">
          <mxGeometry relative="1" as="geometry" />
        </mxCell>
        <mxCell id="n-dGnEdIDqLeS3YyGo9B-48" value="Project - &lt;i&gt;Fin4u&lt;/i&gt;" style="ellipse;whiteSpace=wrap;html=1;" vertex="1" parent="1">
          <mxGeometry x="340" y="30" width="110" height="50" as="geometry" />
        </mxCell>
        <mxCell id="n-dGnEdIDqLeS3YyGo9B-53" style="edgeStyle=orthogonalEdgeStyle;rounded=0;orthogonalLoop=1;jettySize=auto;html=1;entryX=0;entryY=0;entryDx=0;entryDy=0;curved=1;" edge="1" parent="1" source="n-dGnEdIDqLeS3YyGo9B-51" target="n-dGnEdIDqLeS3YyGo9B-48">
          <mxGeometry relative="1" as="geometry" />
        </mxCell>
        <mxCell id="n-dGnEdIDqLeS3YyGo9B-51" value="Project Manager - &lt;i&gt;MP&lt;/i&gt;" style="ellipse;whiteSpace=wrap;html=1;fillColor=#6d8764;strokeColor=#3A5431;fontColor=#ffffff;" vertex="1" parent="1">
          <mxGeometry x="230" y="-50" width="110" height="50" as="geometry" />
        </mxCell>
        <mxCell id="n-dGnEdIDqLeS3YyGo9B-54" style="edgeStyle=orthogonalEdgeStyle;rounded=0;orthogonalLoop=1;jettySize=auto;html=1;exitX=0.5;exitY=1;exitDx=0;exitDy=0;curved=1;" edge="1" parent="1" source="n-dGnEdIDqLeS3YyGo9B-52" target="n-dGnEdIDqLeS3YyGo9B-48">
          <mxGeometry relative="1" as="geometry" />
        </mxCell>
        <mxCell id="n-dGnEdIDqLeS3YyGo9B-52" value="Owner - &lt;i&gt;MP&lt;/i&gt;" style="ellipse;whiteSpace=wrap;html=1;fillColor=#6d8764;strokeColor=#3A5431;fontColor=#ffffff;" vertex="1" parent="1">
          <mxGeometry x="390" y="-60" width="110" height="50" as="geometry" />
        </mxCell>
        <mxCell id="n-dGnEdIDqLeS3YyGo9B-56" style="edgeStyle=orthogonalEdgeStyle;rounded=0;orthogonalLoop=1;jettySize=auto;html=1;curved=1;" edge="1" parent="1" source="n-dGnEdIDqLeS3YyGo9B-55" target="n-dGnEdIDqLeS3YyGo9B-1">
          <mxGeometry relative="1" as="geometry" />
        </mxCell>
        <mxCell id="n-dGnEdIDqLeS3YyGo9B-55" value="Approver - &lt;i&gt;MP&lt;/i&gt;" style="ellipse;whiteSpace=wrap;html=1;fillColor=#6d8764;strokeColor=#3A5431;fontColor=#ffffff;" vertex="1" parent="1">
          <mxGeometry x="60" y="170" width="110" height="50" as="geometry" />
        </mxCell>
        <mxCell id="n-dGnEdIDqLeS3YyGo9B-21" value="Tax Group - &lt;i&gt;Fin4u&lt;/i&gt;" style="ellipse;whiteSpace=wrap;html=1;fillColor=#dae8fc;strokeColor=#6c8ebf;" vertex="1" parent="1">
          <mxGeometry x="720" y="100" width="110" height="50" as="geometry" />
        </mxCell>
        <mxCell id="n-dGnEdIDqLeS3YyGo9B-57" value="" style="group" vertex="1" connectable="0" parent="1">
          <mxGeometry x="620" y="10" width="270" height="70" as="geometry" />
        </mxCell>
        <mxCell id="n-dGnEdIDqLeS3YyGo9B-10" value="FinDims - &lt;i&gt;Fin4u&lt;/i&gt;" style="ellipse;whiteSpace=wrap;html=1;fillColor=#dae8fc;strokeColor=#6c8ebf;" vertex="1" parent="n-dGnEdIDqLeS3YyGo9B-57">
          <mxGeometry y="20" width="110" height="50" as="geometry" />
        </mxCell>
        <mxCell id="n-dGnEdIDqLeS3YyGo9B-20" value="&lt;i&gt;&lt;font style=&quot;font-size: 8px;&quot;&gt;Org unit, Project, Award, ResNo, EquipId, Result...&lt;/font&gt;&lt;/i&gt;" style="text;html=1;align=center;verticalAlign=middle;resizable=0;points=[];autosize=1;strokeColor=none;fillColor=none;" vertex="1" parent="n-dGnEdIDqLeS3YyGo9B-57">
          <mxGeometry x="40" y="-2" width="200" height="30" as="geometry" />
        </mxCell>
        <mxCell id="n-dGnEdIDqLeS3YyGo9B-60" style="edgeStyle=orthogonalEdgeStyle;rounded=0;orthogonalLoop=1;jettySize=auto;html=1;entryX=0.5;entryY=0;entryDx=0;entryDy=0;curved=1;" edge="1" parent="1" source="n-dGnEdIDqLeS3YyGo9B-59" target="n-dGnEdIDqLeS3YyGo9B-2">
          <mxGeometry relative="1" as="geometry" />
        </mxCell>
        <mxCell id="n-dGnEdIDqLeS3YyGo9B-59" value="Currency - &lt;i&gt;Fin4u&lt;/i&gt;" style="ellipse;whiteSpace=wrap;html=1;fillColor=#dae8fc;strokeColor=#6c8ebf;" vertex="1" parent="1">
          <mxGeometry x="640" y="-50" width="110" height="50" as="geometry" />
        </mxCell>
        <mxCell id="n-dGnEdIDqLeS3YyGo9B-63" style="edgeStyle=orthogonalEdgeStyle;rounded=0;orthogonalLoop=1;jettySize=auto;html=1;curved=1;" edge="1" parent="1" source="n-dGnEdIDqLeS3YyGo9B-62" target="n-dGnEdIDqLeS3YyGo9B-2">
          <mxGeometry relative="1" as="geometry" />
        </mxCell>
        <mxCell id="n-dGnEdIDqLeS3YyGo9B-62" value="Account - &lt;i&gt;Fin4u&lt;/i&gt;" style="ellipse;whiteSpace=wrap;html=1;fillColor=#dae8fc;strokeColor=#6c8ebf;" vertex="1" parent="1">
          <mxGeometry x="730" y="160" width="110" height="50" as="geometry" />
        </mxCell>
      </root>
    </mxGraphModel>
  </diagram>
</mxfile>
